<?xml version="1.0" standalone="no"?>
<!DOCTYPE svg PUBLIC "-//W3C//DTD SVG 20010904//EN"
 "http://www.w3.org/TR/2001/REC-SVG-20010904/DTD/svg10.dtd">
<svg version="1.0" xmlns="http://www.w3.org/2000/svg"
 width="512.000000pt" height="512.000000pt" viewBox="0 0 512.000000 512.000000"
 preserveAspectRatio="xMidYMid meet">
<metadata>
Created by potrace 1.14, written by Peter Selinger 2001-2017
</metadata>
<g transform="translate(0.000000,512.000000) scale(0.100000,-0.100000)"
fill="#000000" stroke="none">
<path d="M0 2560 l0 -2560 2560 0 2560 0 0 2560 0 2560 -2560 0 -2560 0 0
-2560z m2855 811 c148 -49 245 -121 300 -222 72 -133 74 -324 4 -461 -45 -88
-169 -193 -272 -229 -20 -7 -36 -17 -35 -21 2 -4 129 -159 283 -344 154 -186
286 -345 293 -356 13 -17 5 -18 -212 -18 l-225 0 -200 263 c-212 280 -276 348
-362 393 -48 25 -67 29 -166 32 l-113 4 0 -346 0 -346 -175 0 -175 0 0 683 c0
772 1 759 -79 920 l-39 78 552 -3 c547 -3 551 -4 621 -27z"/>
<path d="M2150 2910 l0 -351 228 3 228 3 66 33 c75 37 110 72 147 152 22 47
26 69 26 150 0 66 -5 111 -18 147 -26 73 -92 143 -169 179 -63 29 -64 29 -285
32 l-223 4 0 -352z"/>
</g>
</svg>
